<svg width="221" height="42" viewBox="0 0 221 42" fill="none" xmlns="http://www.w3.org/2000/svg">
<path opacity="0.5" d="M40.0652 2.25671L30.2601 36.9917C30.2102 37.1494 30.0108 37.1967 29.8945 37.0863L23.3301 30.8583L28.2492 13.4514C28.2991 13.2937 28.1495 13.1518 27.9833 13.1991L9.63617 17.8662L3.10498 11.6697C2.98865 11.5593 3.03851 11.3701 3.20469 11.3228L39.7993 2.00444C39.9655 1.97291 40.115 2.11481 40.0652 2.25671Z" fill="#00B37E"/>
<path opacity="0.5" d="M23.3297 30.858L20.8037 39.8452C20.7538 40.0029 20.5544 40.0502 20.4381 39.9398L0.0634003 20.6251C-0.0529313 20.5147 -0.00307518 20.3255 0.163113 20.2782L9.63583 17.8658L23.3297 30.858Z" fill="#00B37E"/>
<path d="M28.2484 13.4511L23.3292 30.858L9.63533 17.8659L27.9825 13.1988C28.1487 13.1515 28.2982 13.2934 28.2484 13.4511Z" fill="#00B37E"/>
<path d="M72.1065 19.993V27.2013C71.8234 27.5428 71.3861 27.9134 70.7948 28.3132C70.2035 28.7046 69.4414 29.0419 68.5086 29.3251C67.5758 29.6083 66.4473 29.7499 65.1231 29.7499C63.9487 29.7499 62.8785 29.5583 61.9124 29.1752C60.9463 28.7837 60.1134 28.2132 59.4138 27.4637C58.7226 26.7141 58.1895 25.798 57.8147 24.7152C57.44 23.6242 57.2526 22.3791 57.2526 20.9799V19.843C57.2526 18.4438 57.4316 17.1987 57.7898 16.1077C58.1562 15.0166 58.6768 14.0963 59.3514 13.3468C60.026 12.5972 60.8297 12.0267 61.7625 11.6352C62.6953 11.2438 63.7322 11.0481 64.8732 11.0481C66.4556 11.0481 67.7549 11.3063 68.771 11.8226C69.787 12.3307 70.5616 13.0386 71.0946 13.9464C71.636 14.8459 71.9691 15.8786 72.0941 17.0446H68.4586C68.367 16.4283 68.1921 15.8911 67.9339 15.4331C67.6758 14.975 67.3051 14.6169 66.8221 14.3587C66.3474 14.1005 65.731 13.9714 64.9731 13.9714C64.3485 13.9714 63.7905 14.1005 63.2991 14.3587C62.816 14.6085 62.4079 14.9792 62.0748 15.4705C61.7417 15.9619 61.4876 16.5699 61.3127 17.2945C61.1378 18.0191 61.0504 18.8603 61.0504 19.8181V20.9799C61.0504 21.9293 61.142 22.7705 61.3252 23.5034C61.5085 24.228 61.7791 24.8402 62.1373 25.3399C62.5037 25.8313 62.9535 26.2019 63.4865 26.4517C64.0195 26.7016 64.64 26.8265 65.3479 26.8265C65.9393 26.8265 66.4306 26.7766 66.8221 26.6766C67.2219 26.5767 67.5425 26.4559 67.784 26.3143C68.0339 26.1644 68.2254 26.0228 68.3587 25.8896V22.6664H64.9357V19.993H72.1065ZM82.2008 26.4517V20.4302C82.2008 19.9971 82.13 19.6265 81.9884 19.3183C81.8468 19.0019 81.6261 18.7562 81.3263 18.5813C81.0348 18.4064 80.6558 18.3189 80.1894 18.3189C79.7896 18.3189 79.444 18.3897 79.1525 18.5313C78.861 18.6645 78.6361 18.8603 78.4779 19.1185C78.3197 19.3683 78.2405 19.664 78.2405 20.0054H74.6426C74.6426 19.4308 74.7759 18.8853 75.0424 18.3689C75.3089 17.8525 75.6962 17.3986 76.2042 17.0072C76.7122 16.6074 77.3161 16.2951 78.0157 16.0702C78.7236 15.8453 79.5148 15.7329 80.3893 15.7329C81.4387 15.7329 82.3715 15.9078 83.1877 16.2576C84.0039 16.6074 84.6452 17.1321 85.1116 17.8317C85.5863 18.5313 85.8237 19.4058 85.8237 20.4552V26.2394C85.8237 26.9806 85.8695 27.5886 85.9611 28.0633C86.0527 28.5297 86.186 28.9378 86.3609 29.2876V29.5H82.7255C82.5506 29.1335 82.4173 28.6755 82.3257 28.1258C82.2424 27.5678 82.2008 27.0098 82.2008 26.4517ZM82.6755 21.2672L82.7005 23.3036H80.6891C80.2144 23.3036 79.8021 23.3577 79.4523 23.466C79.1025 23.5742 78.8152 23.7283 78.5903 23.9282C78.3655 24.1198 78.1989 24.3446 78.0906 24.6028C77.9907 24.861 77.9407 25.1442 77.9407 25.4523C77.9407 25.7605 78.0115 26.0395 78.1531 26.2893C78.2947 26.5309 78.4987 26.7224 78.7652 26.864C79.0317 26.9973 79.3441 27.0639 79.7022 27.0639C80.2435 27.0639 80.7141 26.9556 81.1139 26.7391C81.5137 26.5225 81.8218 26.256 82.0384 25.9395C82.2632 25.6231 82.3798 25.3232 82.3882 25.0401L83.3376 26.5642C83.2044 26.9057 83.0211 27.2596 82.7879 27.6261C82.5631 27.9925 82.2757 28.3382 81.9259 28.663C81.5761 28.9795 81.1555 29.2418 80.6641 29.45C80.1728 29.6499 79.5898 29.7499 78.9151 29.7499C78.0573 29.7499 77.2786 29.5791 76.579 29.2377C75.8877 28.8879 75.338 28.409 74.9299 27.801C74.5302 27.1847 74.3303 26.4851 74.3303 25.7022C74.3303 24.9943 74.4635 24.3654 74.73 23.8158C74.9966 23.2661 75.388 22.8038 75.9044 22.4291C76.4291 22.0459 77.0829 21.7586 77.8657 21.5671C78.6486 21.3672 79.5564 21.2672 80.5892 21.2672H82.6755ZM92.3949 10.311V29.5H88.7845V10.311H92.3949ZM103.351 26.5517V10.311H106.974V29.5H103.713L103.351 26.5517ZM94.806 22.9038V22.6414C94.806 21.6087 94.9226 20.6717 95.1558 19.8305C95.389 18.981 95.7305 18.2523 96.1802 17.6443C96.63 17.0363 97.1838 16.5658 97.8418 16.2326C98.4997 15.8995 99.2493 15.7329 100.09 15.7329C100.882 15.7329 101.573 15.8995 102.164 16.2326C102.764 16.5658 103.272 17.0405 103.688 17.6568C104.113 18.2648 104.455 18.9852 104.713 19.8181C104.971 20.6426 105.158 21.5462 105.275 22.529V23.1037C105.158 24.0448 104.971 24.9193 104.713 25.7272C104.455 26.535 104.113 27.243 103.688 27.8509C103.272 28.4506 102.764 28.917 102.164 29.2501C101.565 29.5833 100.865 29.7499 100.066 29.7499C99.2243 29.7499 98.4748 29.5791 97.8168 29.2377C97.1672 28.8962 96.6175 28.4173 96.1677 27.801C95.7263 27.1847 95.389 26.4601 95.1558 25.6272C94.9226 24.7944 94.806 23.8866 94.806 22.9038ZM98.404 22.6414V22.9038C98.404 23.4618 98.4456 23.9823 98.5289 24.4654C98.6205 24.9484 98.7663 25.3774 98.9661 25.7521C99.1744 26.1186 99.4409 26.4059 99.7657 26.6142C100.099 26.814 100.503 26.914 100.977 26.914C101.594 26.914 102.102 26.7766 102.502 26.5017C102.901 26.2185 103.205 25.8313 103.414 25.3399C103.63 24.8485 103.755 24.2822 103.788 23.6409V22.0043C103.763 21.4796 103.688 21.009 103.564 20.5926C103.447 20.1679 103.272 19.8056 103.039 19.5057C102.814 19.2059 102.531 18.9727 102.189 18.8061C101.856 18.6396 101.461 18.5563 101.002 18.5563C100.536 18.5563 100.136 18.6645 99.8032 18.8811C99.47 19.0893 99.1993 19.3766 98.9911 19.7431C98.7912 20.1096 98.6413 20.5426 98.5414 21.0424C98.4498 21.5337 98.404 22.0668 98.404 22.6414ZM116.006 29.7499C114.957 29.7499 114.016 29.5833 113.183 29.2501C112.35 28.9087 111.642 28.4381 111.059 27.8385C110.485 27.2388 110.043 26.5434 109.735 25.7521C109.427 24.9526 109.273 24.1031 109.273 23.2036V22.7039C109.273 21.6795 109.418 20.7425 109.71 19.893C110.001 19.0435 110.418 18.3064 110.959 17.6818C111.509 17.0571 112.175 16.5782 112.958 16.2451C113.741 15.9036 114.624 15.7329 115.607 15.7329C116.564 15.7329 117.414 15.8911 118.155 16.2076C118.896 16.5241 119.517 16.9739 120.017 17.5569C120.525 18.1398 120.908 18.8394 121.166 19.6556C121.424 20.4635 121.553 21.363 121.553 22.3541V23.8532H110.809V21.4546H118.018V21.1798C118.018 20.6801 117.926 20.2345 117.743 19.843C117.568 19.4433 117.301 19.1268 116.943 18.8936C116.585 18.6604 116.127 18.5438 115.569 18.5438C115.094 18.5438 114.686 18.6479 114.345 18.8561C114.003 19.0643 113.724 19.3558 113.508 19.7306C113.3 20.1054 113.141 20.5468 113.033 21.0548C112.933 21.5546 112.883 22.1042 112.883 22.7039V23.2036C112.883 23.745 112.958 24.2447 113.108 24.7028C113.266 25.1608 113.487 25.5564 113.77 25.8896C114.062 26.2227 114.411 26.4809 114.82 26.6641C115.236 26.8474 115.707 26.939 116.231 26.939C116.881 26.939 117.485 26.814 118.043 26.5642C118.609 26.306 119.096 25.9187 119.504 25.4024L121.253 27.3013C120.97 27.7094 120.583 28.1008 120.092 28.4756C119.608 28.8504 119.025 29.1585 118.343 29.4001C117.66 29.6333 116.881 29.7499 116.006 29.7499ZM128.024 26.8765L131.023 15.9828H134.783L130.223 29.5H127.95L128.024 26.8765ZM125.963 15.9828L128.974 26.889L129.036 29.5H126.75L122.19 15.9828H125.963ZM144.702 11.3104H147.876L152.548 24.6653L157.22 11.3104H160.393L153.822 29.5H151.274L144.702 11.3104ZM142.991 11.3104H146.152L146.726 24.328V29.5H142.991V11.3104ZM158.944 11.3104H162.117V29.5H158.37V24.328L158.944 11.3104ZM164.603 22.8788V22.6164C164.603 21.6253 164.745 20.7134 165.028 19.8805C165.311 19.0393 165.724 18.3106 166.265 17.6943C166.806 17.078 167.473 16.5991 168.264 16.2576C169.055 15.9078 169.963 15.7329 170.987 15.7329C172.012 15.7329 172.924 15.9078 173.723 16.2576C174.523 16.5991 175.193 17.078 175.735 17.6943C176.284 18.3106 176.701 19.0393 176.984 19.8805C177.267 20.7134 177.409 21.6253 177.409 22.6164V22.8788C177.409 23.8616 177.267 24.7735 176.984 25.6147C176.701 26.4476 176.284 27.1763 175.735 27.801C175.193 28.4173 174.527 28.8962 173.736 29.2377C172.945 29.5791 172.037 29.7499 171.012 29.7499C169.988 29.7499 169.076 29.5791 168.276 29.2377C167.485 28.8962 166.815 28.4173 166.265 27.801C165.724 27.1763 165.311 26.4476 165.028 25.6147C164.745 24.7735 164.603 23.8616 164.603 22.8788ZM168.201 22.6164V22.8788C168.201 23.4451 168.251 23.974 168.351 24.4654C168.451 24.9568 168.61 25.3899 168.826 25.7646C169.051 26.1311 169.342 26.4184 169.701 26.6266C170.059 26.8349 170.496 26.939 171.012 26.939C171.512 26.939 171.941 26.8349 172.299 26.6266C172.657 26.4184 172.945 26.1311 173.161 25.7646C173.378 25.3899 173.536 24.9568 173.636 24.4654C173.744 23.974 173.798 23.4451 173.798 22.8788V22.6164C173.798 22.0668 173.744 21.5504 173.636 21.0673C173.536 20.576 173.373 20.1429 173.149 19.7681C172.932 19.385 172.645 19.0851 172.287 18.8686C171.928 18.6521 171.495 18.5438 170.987 18.5438C170.479 18.5438 170.046 18.6521 169.688 18.8686C169.338 19.0851 169.051 19.385 168.826 19.7681C168.61 20.1429 168.451 20.576 168.351 21.0673C168.251 21.5504 168.201 22.0668 168.201 22.6164ZM183.143 18.8686V29.5H179.545V15.9828H182.918L183.143 18.8686ZM182.618 22.2666H181.644C181.644 21.2672 181.773 20.3677 182.031 19.5682C182.289 18.7603 182.651 18.0732 183.118 17.5069C183.584 16.9322 184.138 16.495 184.779 16.1951C185.429 15.887 186.154 15.7329 186.953 15.7329C187.586 15.7329 188.165 15.8245 188.69 16.0077C189.214 16.191 189.664 16.4825 190.039 16.8822C190.422 17.282 190.714 17.8109 190.913 18.4688C191.122 19.1268 191.226 19.9305 191.226 20.8799V29.5H187.603V20.8675C187.603 20.2678 187.52 19.8014 187.353 19.4683C187.186 19.1351 186.941 18.9019 186.616 18.7687C186.299 18.6271 185.908 18.5563 185.442 18.5563C184.958 18.5563 184.538 18.6521 184.18 18.8436C183.83 19.0352 183.538 19.3017 183.305 19.6432C183.08 19.9763 182.91 20.3677 182.793 20.8175C182.676 21.2672 182.618 21.7503 182.618 22.2666ZM200.183 29.7499C199.134 29.7499 198.193 29.5833 197.36 29.2501C196.527 28.9087 195.819 28.4381 195.236 27.8385C194.661 27.2388 194.22 26.5434 193.912 25.7521C193.604 24.9526 193.449 24.1031 193.449 23.2036V22.7039C193.449 21.6795 193.595 20.7425 193.887 19.893C194.178 19.0435 194.595 18.3064 195.136 17.6818C195.686 17.0571 196.352 16.5782 197.135 16.2451C197.918 15.9036 198.801 15.7329 199.783 15.7329C200.741 15.7329 201.591 15.8911 202.332 16.2076C203.073 16.5241 203.694 16.9739 204.193 17.5569C204.701 18.1398 205.084 18.8394 205.343 19.6556C205.601 20.4635 205.73 21.363 205.73 22.3541V23.8532H194.986V21.4546H202.194V21.1798C202.194 20.6801 202.103 20.2345 201.92 19.843C201.745 19.4433 201.478 19.1268 201.12 18.8936C200.762 18.6604 200.304 18.5438 199.746 18.5438C199.271 18.5438 198.863 18.6479 198.522 18.8561C198.18 19.0643 197.901 19.3558 197.685 19.7306C197.476 20.1054 197.318 20.5468 197.21 21.0548C197.11 21.5546 197.06 22.1042 197.06 22.7039V23.2036C197.06 23.745 197.135 24.2447 197.285 24.7028C197.443 25.1608 197.664 25.5564 197.947 25.8896C198.238 26.2227 198.588 26.4809 198.996 26.6641C199.413 26.8474 199.883 26.939 200.408 26.939C201.058 26.939 201.661 26.814 202.219 26.5642C202.786 26.306 203.273 25.9187 203.681 25.4024L205.43 27.3013C205.147 27.7094 204.76 28.1008 204.268 28.4756C203.785 28.8504 203.202 29.1585 202.519 29.4001C201.836 29.6333 201.058 29.7499 200.183 29.7499ZM211.614 27.9759L215.199 15.9828H219.06L213.625 31.5363C213.509 31.8778 213.351 32.2443 213.151 32.6357C212.959 33.0271 212.697 33.3978 212.364 33.7476C212.039 34.1057 211.627 34.3972 211.127 34.6221C210.635 34.8469 210.032 34.9594 209.315 34.9594C208.974 34.9594 208.695 34.9385 208.478 34.8969C208.262 34.8553 208.004 34.797 207.704 34.722V32.086C207.795 32.086 207.891 32.086 207.991 32.086C208.091 32.0943 208.187 32.0985 208.278 32.0985C208.753 32.0985 209.14 32.0444 209.44 31.9361C209.74 31.8278 209.982 31.6613 210.165 31.4364C210.348 31.2198 210.494 30.9367 210.602 30.5869L211.614 27.9759ZM210.115 15.9828L213.051 25.7771L213.563 29.5874L211.114 29.8498L206.255 15.9828H210.115Z" fill="#E1E1E6"/>
</svg>
